HIERARCHY
ROOT Hips
{
	OFFSET 0.00000 0.00000 0.00000
	CHANNELS 6 Xposition Yposition Zposition Yrotation Zrotation Xrotation 
	JOINT Lumbar
	{
		OFFSET 0 0 0
		CHANNELS 3 Zrotation Xrotation Yrotation
		JOINT Neck
		{
			OFFSET 0.00 0.2701 0.00
			CHANNELS 3 Zrotation Xrotation Yrotation
			End Site
			{
				OFFSET 0.00 0.1379 0.00
			}
		}
		JOINT RightShoulder
		{
			OFFSET 0.0119 0.2289 0.1181
			CHANNELS 3 Zrotation Xrotation Yrotation
			JOINT RightElbow
			{
				OFFSET 0.00 -0.1475 0.00
				CHANNELS 2 Zrotation Yrotation
				JOINT RightWrist
				{
					OFFSET 0.00 -0.1605 0.00
					CHANNELS 2 Zrotation Xrotation
					End Site
					{
						OFFSET 0.0040 -0.1068 0.0006
					}
				}
			}
		}
		JOINT LeftShoulder
		{
			OFFSET 0.0119 0.2289 -0.1181
			CHANNELS 3 Zrotation Xrotation Yrotation
			JOINT LeftElbow
			{
				OFFSET 0.00 -0.1475 0.00
				CHANNELS 2 Zrotation Yrotation
				JOINT LeftWrist
				{
					OFFSET 0.00 -0.1605 0.00
					CHANNELS 2 Zrotation Xrotation
					End Site
					{
						OFFSET 0.0040 -0.1068 -0.0006
					}
				}
			}
		}
	}
	JOINT RightHip
	{
		OFFSET 0.0316 -0.0424 0.0458
		CHANNELS 3 Zrotation Xrotation Yrotation
		JOINT RightKnee
		{
			OFFSET 0.00 -0.2438 0.00
			CHANNELS 1 Zrotation
			JOINT RightAnkle
			{
				OFFSET 0.00 -0.2449 0.00
				CHANNELS 3 Zrotation Xrotation Yrotation
				End Site
				{
					OFFSET 0.1237 -0.0542 0.0051
				}
			}
		}
	}
	JOINT LeftHip
	{
		OFFSET 0.0316 -0.0424 -0.0458
		CHANNELS 3 Zrotation Xrotation Yrotation
		JOINT LeftKnee
		{
			OFFSET 0.00 -0.2438 0.00
			CHANNELS 1 Zrotation
			JOINT LeftAnkle
			{
				OFFSET 0.00 -0.2449 0.00
				CHANNELS 3 Zrotation Xrotation Yrotation
				End Site
				{
					OFFSET 0.1237 -0.0542 -0.0051
				}
			}
		}
	}
}
MOTION
Frames: 10
Frame Time: 0.02
-0.01138 -0.42588 -0.22243 124.48396 -85.52501 -89.99629 -8.88229 -7.09963 3.92796 -4.81106 -10.33632 -0.83079 131.18454 -23.11155 49.98767 72.32312 125.48032 -49.97083 -8.44481 131.61939 30.88808 -46.53035 79.44553 -122.80996 -48.10547 8.13641 31.82555 -16.64641 8.52197 -57.87802 -6.05553 -4.60936 -3.04635 79.13368 -13.92185 22.62583 -148.91173 23.89195 -35.809 -17.18793
-0.01137 -0.42589 -0.22243 124.49999 -85.52456 -89.99629 -8.8744 -7.0895 3.92269 -4.80641 -10.30458 -0.83079 131.767 -23.46019 51.14434 72.26808 126.86006 -52.54113 -8.60534 132.77404 31.60874 -48.5875 79.38894 -124.15831 -51.93303 8.23554 31.81498 -16.61242 8.55996 -57.87843 -6.05758 -4.61325 -3.04892 79.1056 -13.92118 22.60788 -148.91173 23.89169 -35.80844 -17.1874
-0.01136 -0.42588 -0.22243 124.51533 -85.51641 -89.9963 -8.86631 -7.08272 3.91855 -4.79366 -10.26556 -0.83079 132.74324 -24.04 53.03327 72.17651 129.05305 -56.76384 -8.85326 134.23584 32.51933 -51.17504 79.31829 -125.84892 -56.77214 8.35634 31.81046 -16.58488 8.59675 -57.87734 -6.05802 -4.61486 -3.05015 79.09392 -13.92035 22.59791 -148.91173 23.89137 -35.80773 -17.18675
-0.01135 -0.42587 -0.22242 124.53081 -85.51252 -89.9963 -8.85865 -7.07421 3.91405 -4.78549 -10.23135 -0.83079 133.50646 -24.49585 54.52248 72.1059 130.79732 -60.08544 -9.05231 135.47706 33.2928 -53.38028 79.25673 -127.29217 -60.88636 8.46077 31.80258 -16.5543 8.63396 -57.87685 -6.05919 -4.61752 -3.05198 79.07319 -13.91964 22.58324 -148.91173 23.8911 -35.80714 -17.18619
-0.01134 -0.42587 -0.22242 124.54705 -85.50562 -89.99631 -8.84941 -7.06639 3.90887 -4.77333 -10.19104 -0.83079 134.403 -25.02476 56.27426 72.01723 132.8545 -63.9966 -9.28775 137.05952 34.2809 -56.18094 79.18461 -129.12328 -66.11888 8.59239 31.79688 -16.52381 8.67271 -57.87633 -6.06038 -4.62015 -3.05384 79.05772 -13.91872 22.57309 -148.91173 23.89075 -35.80636 -17.18547
-0.01133 -0.42587 -0.22242 124.56155 -85.50306 -89.99631 -8.84346 -7.05805 3.90536 -4.76766 -10.1615 -0.83079 135.11715 -25.45724 57.65685 71.95715 134.45707 -67.08069 -9.46864 138.01517 34.87375 -57.88636 79.13057 -130.23982 -69.29782 8.67346 31.78819 -16.49449 8.708 -57.87564 -6.06121 -4.62236 -3.05537 79.03595 -13.91821 22.5555 -148.91173 23.89055 -35.80593 -17.18507
-0.01134 -0.4259 -0.22241 124.57132 -85.51474 -89.9963 -8.84676 -7.04702 3.90648 -4.78159 -10.16475 -0.83079 135.2604 -25.58937 57.89083 71.98763 134.65717 -67.58607 -9.48249 137.02751 34.24239 -56.19944 79.13305 -129.14454 -66.11114 8.59942 31.77009 -16.47088 8.72828 -57.87512 -6.06057 -4.62297 -3.05566 78.9904 -13.9189 22.51431 -148.91173 23.89082 -35.80652 -17.18562
-0.01136 -0.42594 -0.22241 124.57937 -85.53095 -89.99629 -8.8534 -7.03546 3.90919 -4.80242 -10.17886 -0.83079 135.20385 -25.61414 57.72373 72.04761 134.36648 -67.19205 -9.4381 135.41937 33.21976 -53.42827 79.15359 -127.34174 -60.89096 8.47543 31.7488 -16.44774 8.74564 -57.87449 -6.05978 -4.62337 -3.05577 78.93853 -13.92001 22.46554 -148.91173 23.89124 -35.80745 -17.18648
-0.01137 -0.42598 -0.22241 124.58827 -85.54484 -89.99628 -8.85848 -7.02445 3.91098 -4.82032 -10.18714 -0.83079 135.22046 -25.67383 57.70892 72.09229 134.26918 -67.14245 -9.41722 134.18758 32.43418 -51.3135 79.16368 -125.96687 -56.90228 8.38119 31.72876 -16.42158 8.76831 -57.87378 -6.05967 -4.62454 -3.05643 78.89131 -13.92089 22.42096 -148.91173 23.89158 -35.8082 -17.18718
-0.01138 -0.42602 -0.22241 124.59689 -85.55962 -89.99627 -8.86372 -7.01228 3.91364 -4.83707 -10.19888 -0.83079 135.32135 -25.79751 57.83923 72.1437 134.32175 -67.41015 -9.41094 132.58086 31.41319 -48.54834 79.18261 -124.16935 -51.69269 8.2587 31.70961 -16.40671 8.7755 -57.87352 -6.057 -4.62289 -3.05516 78.83724 -13.92192 22.37353 -148.91173 23.89198 -35.80907 -17.18799
